PathFileType	4	(X/Y/Z)	C:/Users/beibeiliu/ov580/test_trc\sequence.17_training_dense_left.trc
DataRate	CameraRate	NumFrames	NumMarkers	Units	OrigDataRate	OrigDataStartFrame	OrigNumFrames
120	120	7	19	mm	120	190	303
Frame#	Time	ThumbCMC			ThumbMCP			ThumbIP			ThumbTip			IndexMCP			IndexPIP			IndexTip			MiddleMCP			MiddlePIP			MiddleTip			RingMCP			RingPIP			RingTip			PinkyMCP			PinkyPIP			PinkyTip			BackHand1			BackHand2			BackHand3	
		X0	Y0	Z0	X1	Y1	Z1	X2	Y2	Z2	X3	Y3	Z3	X4	Y4	Z4	X5	Y5	Z5	X6	Y6	Z6	X7	Y7	Z7	X8	Y8	Z8	X9	Y9	Z9	X10	Y10	Z10	X11	Y11	Z11	X12	Y12	Z12	X13	Y13	Z13	X14	Y14	Z14	X15	Y15	Z15	X16	Y16	Z16	X17	Y17	Z17	X18	Y18	Z18	
189	1.575	-235.917	32.7369	0.726206	-210.074	28.7527	6.10171	-188.28	35.7505	4.89707	-169.585	40.1169	1.89031	-196.382	-8.15742	-28.8139	-170.939	-16.7877	-13.8455	-170.663	-5.04353	13.0577	-198.25	-26.5877	-14.9937	-181.736	-25.6338	10.9488	-205.509	-3.35867	22.7451	-203.956	-32.5504	3.20457	-202.535	-18.7215	29.1195	-224.109	0.126824	24.5065	-218.546	-40.4028	16.5717	-214.472	-22.6558	29.2972	-232.843	-3.83859	23.2367	-255.467	-16.0556	-12.1769	-277.399	-1.85544	-2.68312	-252.122	11.6328	-16.671	
190	1.58333	-236.263	36.8696	2.39466	-208.667	35.0196	7.17999	-188.107	39.7673	4.32086	-174.146	46.7696	2.18831	-197.524	-4.51588	-28.4804	-174.066	-17.5986	-19.9472	-159.198	-11.5337	6.90835	-194.958	-22.6483	-14.6057	-179.105	-17.0669	12.0181	-203.744	-0.55842	23.3885	-206.904	-32.3832	4.07854	-199.066	-15.7732	25.3217	-223.923	0.143422	27.1485	-219.938	-37.6564	11.5294	-213.104	-19.4068	28.9055	-232.05	0.213091	22.3536	-250.046	-19.8681	-11.7281	-272.631	-5.51642	-3.40465	-253.974	15.5283	-15.6845	
191	1.59167	-238.104	33.8642	1.7878	-214.734	37.7366	7.97927	-194.604	42.4515	4.87338	-176.574	47.9199	0.522855	-195.189	-3.01932	-28.2952	-170.283	-13.7061	-23.6013	-152.77	-17.1835	-4.90703	-193.288	-18.6903	-12.5055	-180.056	-15.6076	14.0063	-206.663	5.80613	23.5383	-199.838	-24.9463	3.53137	-200.452	-11.9133	27.8489	-223.908	2.50265	26.6155	-215.264	-32.9123	11.8801	-210.988	-17.892	29.8956	-230.367	0.713451	20.6588	-249.697	-19.0953	-12.8022	-271.441	-6.33609	-4.21563	-255.27	11.0162	-14.3358	
192	1.6	-240.175	38.2657	3.08972	-214.003	40.6395	6.01046	-193.846	43.3218	1.85919	-178.34	56.022	-0.236814	-192.52	-1.82964	-29.1117	-173.745	-11.6736	-23.4036	-147.294	-13.2722	-12.0311	-194.387	-15.6262	-11.0634	-182.014	-10.5837	16.5037	-207.224	7.92036	26.2264	-200.839	-24.9839	6.87495	-199.707	-8.19923	29.0272	-223.673	7.93655	23.659	-214.891	-35.3562	15.5962	-210.486	-17.2614	32.4133	-230.362	1.87763	27.0775	-250.369	-17.8308	-9.59617	-273.408	-2.84216	-0.817024	-254.472	11.8469	-14.3284	
193	1.60833	-244.035	37.9762	3.66552	-216.802	37.8355	7.77975	-194.518	45.0403	1.13911	-185.221	58.9291	-0.556474	-191.851	-0.352136	-28.9117	-171.122	-5.78995	-24.6841	-148.871	-13.763	-15.8526	-189.814	-12.5689	-8.08954	-181.809	-6.30908	17.1479	-209.949	9.24572	26.1055	-198.965	-23.5884	8.54093	-199.832	-5.11646	28.1642	-222.637	6.39618	27.7882	-212.864	-32.0053	12.0649	-208.947	-15.4361	32.5611	-232.242	2.56803	26.2213	-246.775	-21.5987	-8.99443	-274.143	-10.9206	0.169166	-254.434	11.1012	-14.4355	
194	1.61667	-243.077	32.7915	4.76055	-218.402	40.4739	7.5465	-200.684	46.5111	4.2233	-186.264	57.885	-2.56066	-195.101	1.01249	-27.965	-169.663	-3.46775	-25.1241	-151.224	-5.65878	-20.8063	-191.684	-9.73927	-10.2032	-182.636	-1.11308	18.0621	-209.642	9.62587	26.898	-200.688	-22.3803	5.10423	-198.078	-6.46523	27.5806	-226.416	7.52645	25.3074	-210.757	-32.5671	13.4347	-208.715	-11.7898	30.2694	-229.954	1.96234	25.5399	-249.082	-21.8409	-6.68886	-272.159	-10.9951	5.02111	-258.459	7.72655	-10.606	
195	1.625	-246.956	33.0272	8.65012	-221.847	39.099	10.1426	-201.804	49.8634	2.25634	-192.23	61.2219	1.36786	-198.338	4.88654	-29.3692	-170.398	-1.3142	-26.581	-150.076	-2.43196	-20.5112	-190.496	-9.48573	-10.9407	-179.904	-3.23346	14.7106	-210.911	12.9493	24.2585	-199.793	-22.4475	5.89174	-197.452	-6.30902	28.158	-223.347	5.65887	28.7109	-207.272	-29.891	14.1537	-204.728	-13.2216	28.9249	-228.95	1.16881	24.1078	-247.359	-22.2257	-7.92794	-268.869	-13.1796	3.80292	-255.305	5.10477	-12.3175	
